<svg width="216" height="64" viewBox="0 0 216 64" fill="none" xmlns="http://www.w3.org/2000/svg">
<path d="M12.54 43.1799C10.96 43.1799 9.5 42.9199 8.16 42.3999C6.82 41.8599 5.66 41.1099 4.68 40.1499C3.7 39.1899 2.93 38.0599 2.37 36.7599C1.83 35.4599 1.56 34.0399 1.56 32.4999C1.56 30.9599 1.83 29.5399 2.37 28.2399C2.93 26.9399 3.7 25.8099 4.68 24.8499C5.68 23.8899 6.85 23.1499 8.19 22.6299C9.53 22.0899 10.99 21.8199 12.57 21.8199C14.09 21.8199 15.52 22.0799 16.86 22.5999C18.2 23.0999 19.33 23.8599 20.25 24.8799L18.84 26.2899C17.98 25.4099 17.03 24.7799 15.99 24.3999C14.95 23.9999 13.83 23.7999 12.63 23.7999C11.37 23.7999 10.2 24.0199 9.12 24.4599C8.04 24.8799 7.1 25.4899 6.3 26.2899C5.5 27.0699 4.87 27.9899 4.41 29.0499C3.97 30.0899 3.75 31.2399 3.75 32.4999C3.75 33.7599 3.97 34.9199 4.41 35.9799C4.87 37.0199 5.5 37.9399 6.3 38.7399C7.1 39.5199 8.04 40.1299 9.12 40.5699C10.2 40.9899 11.37 41.1999 12.63 41.1999C13.83 41.1999 14.95 40.9999 15.99 40.5999C17.03 40.1999 17.98 39.5599 18.84 38.6799L20.25 40.0899C19.33 41.1099 18.2 41.8799 16.86 42.3999C15.52 42.9199 14.08 43.1799 12.54 43.1799ZM30.2494 43.1499C28.7294 43.1499 27.3594 42.8099 26.1394 42.1299C24.9394 41.4299 23.9894 40.4799 23.2894 39.2799C22.5894 38.0599 22.2394 36.6699 22.2394 35.1099C22.2394 33.5299 22.5894 32.1399 23.2894 30.9399C23.9894 29.7399 24.9394 28.7999 26.1394 28.1199C27.3394 27.4399 28.7094 27.0999 30.2494 27.0999C31.8094 27.0999 33.1894 27.4399 34.3894 28.1199C35.6094 28.7999 36.5594 29.7399 37.2394 30.9399C37.9394 32.1399 38.2894 33.5299 38.2894 35.1099C38.2894 36.6699 37.9394 38.0599 37.2394 39.2799C36.5594 40.4799 35.6094 41.4299 34.3894 42.1299C33.1694 42.8099 31.7894 43.1499 30.2494 43.1499ZM30.2494 41.2599C31.3894 41.2599 32.3994 41.0099 33.2794 40.5099C34.1594 39.9899 34.8494 39.2699 35.3494 38.3499C35.8694 37.4099 36.1294 36.3299 36.1294 35.1099C36.1294 33.8699 35.8694 32.7899 35.3494 31.8699C34.8494 30.9499 34.1594 30.2399 33.2794 29.7399C32.3994 29.2199 31.3994 28.9599 30.2794 28.9599C29.1594 28.9599 28.1594 29.2199 27.2794 29.7399C26.3994 30.2399 25.6994 30.9499 25.1794 31.8699C24.6594 32.7899 24.3994 33.8699 24.3994 35.1099C24.3994 36.3299 24.6594 37.4099 25.1794 38.3499C25.6994 39.2699 26.3994 39.9899 27.2794 40.5099C28.1594 41.0099 29.1494 41.2599 30.2494 41.2599ZM46.868 43.1499C45.568 43.1499 44.338 42.9699 43.178 42.6099C42.018 42.2299 41.108 41.7599 40.448 41.1999L41.408 39.5199C42.048 39.9999 42.868 40.4199 43.868 40.7799C44.868 41.1199 45.918 41.2899 47.018 41.2899C48.518 41.2899 49.598 41.0599 50.258 40.5999C50.918 40.1199 51.248 39.4899 51.248 38.7099C51.248 38.1299 51.058 37.6799 50.678 37.3599C50.318 37.0199 49.838 36.7699 49.238 36.6099C48.638 36.4299 47.968 36.2799 47.228 36.1599C46.488 36.0399 45.748 35.8999 45.008 35.7399C44.288 35.5799 43.628 35.3499 43.028 35.0499C42.428 34.7299 41.938 34.2999 41.558 33.7599C41.198 33.2199 41.018 32.4999 41.018 31.5999C41.018 30.7399 41.258 29.9699 41.738 29.2899C42.218 28.6099 42.918 28.0799 43.838 27.6999C44.778 27.2999 45.918 27.0999 47.258 27.0999C48.278 27.0999 49.298 27.2399 50.318 27.5199C51.338 27.7799 52.178 28.1299 52.838 28.5699L51.908 30.2799C51.208 29.7999 50.458 29.4599 49.658 29.2599C48.858 29.0399 48.058 28.9299 47.258 28.9299C45.838 28.9299 44.788 29.1799 44.108 29.6799C43.448 30.1599 43.118 30.7799 43.118 31.5399C43.118 32.1399 43.298 32.6099 43.658 32.9499C44.038 33.2899 44.528 33.5599 45.128 33.7599C45.748 33.9399 46.418 34.0899 47.138 34.2099C47.878 34.3299 48.608 34.4799 49.328 34.6599C50.068 34.8199 50.738 35.0499 51.338 35.3499C51.958 35.6299 52.448 36.0399 52.808 36.5799C53.188 37.0999 53.378 37.7899 53.378 38.6499C53.378 39.5699 53.118 40.3699 52.598 41.0499C52.098 41.7099 51.358 42.2299 50.378 42.6099C49.418 42.9699 48.248 43.1499 46.868 43.1499ZM76.9664 27.0999C78.2464 27.0999 79.3564 27.3499 80.2964 27.8499C81.2564 28.3299 81.9964 29.0699 82.5164 30.0699C83.0564 31.0699 83.3264 32.3299 83.3264 33.8499V42.9999H81.1964V34.0599C81.1964 32.3999 80.7964 31.1499 79.9964 30.3099C79.2164 29.4499 78.1064 29.0199 76.6664 29.0199C75.5864 29.0199 74.6464 29.2499 73.8464 29.7099C73.0664 30.1499 72.4564 30.7999 72.0164 31.6599C71.5964 32.4999 71.3864 33.5199 71.3864 34.7199V42.9999H69.2564V34.0599C69.2564 32.3999 68.8564 31.1499 68.0564 30.3099C67.2564 29.4499 66.1364 29.0199 64.6964 29.0199C63.6364 29.0199 62.7064 29.2499 61.9064 29.7099C61.1064 30.1499 60.4864 30.7999 60.0464 31.6599C59.6264 32.4999 59.4164 33.5199 59.4164 34.7199V42.9999H57.2864V27.2499H59.3264V31.5099L58.9964 30.7599C59.4764 29.6199 60.2464 28.7299 61.3064 28.0899C62.3864 27.4299 63.6564 27.0999 65.1164 27.0999C66.6564 27.0999 67.9664 27.4899 69.0464 28.2699C70.1264 29.0299 70.8264 30.1799 71.1464 31.7199L70.3064 31.3899C70.7664 30.1099 71.5764 29.0799 72.7364 28.2999C73.9164 27.4999 75.3264 27.0999 76.9664 27.0999ZM89.1028 42.9999V27.2499H91.2328V42.9999H89.1028ZM90.1828 23.7699C89.7428 23.7699 89.3728 23.6199 89.0728 23.3199C88.7728 23.0199 88.6228 22.6599 88.6228 22.2399C88.6228 21.8199 88.7728 21.4699 89.0728 21.1899C89.3728 20.8899 89.7428 20.7399 90.1828 20.7399C90.6228 20.7399 90.9928 20.8799 91.2928 21.1599C91.5928 21.4399 91.7428 21.7899 91.7428 22.2099C91.7428 22.6499 91.5928 23.0199 91.2928 23.3199C91.0128 23.6199 90.6428 23.7699 90.1828 23.7699ZM103.699 43.1499C102.139 43.1499 100.739 42.8099 99.4995 42.1299C98.2795 41.4299 97.3195 40.4799 96.6195 39.2799C95.9195 38.0599 95.5695 36.6699 95.5695 35.1099C95.5695 33.5299 95.9195 32.1399 96.6195 30.9399C97.3195 29.7399 98.2795 28.7999 99.4995 28.1199C100.739 27.4399 102.139 27.0999 103.699 27.0999C105.039 27.0999 106.249 27.3599 107.329 27.8799C108.409 28.3999 109.259 29.1799 109.879 30.2199L108.289 31.2999C107.749 30.4999 107.079 29.9099 106.279 29.5299C105.479 29.1499 104.609 28.9599 103.669 28.9599C102.549 28.9599 101.539 29.2199 100.639 29.7399C99.7395 30.2399 99.0295 30.9499 98.5095 31.8699C97.9895 32.7899 97.7295 33.8699 97.7295 35.1099C97.7295 36.3499 97.9895 37.4299 98.5095 38.3499C99.0295 39.2699 99.7395 39.9899 100.639 40.5099C101.539 41.0099 102.549 41.2599 103.669 41.2599C104.609 41.2599 105.479 41.0699 106.279 40.6899C107.079 40.3099 107.749 39.7299 108.289 38.9499L109.879 40.0299C109.259 41.0499 108.409 41.8299 107.329 42.3699C106.249 42.8899 105.039 43.1499 103.699 43.1499ZM114.514 42.9999V21.9999H123.064C125.304 21.9999 127.264 22.4499 128.944 23.3499C130.644 24.2299 131.964 25.4599 132.904 27.0399C133.844 28.6199 134.314 30.4399 134.314 32.4999C134.314 34.5599 133.844 36.3799 132.904 37.9599C131.964 39.5399 130.644 40.7799 128.944 41.6799C127.264 42.5599 125.304 42.9999 123.064 42.9999H114.514ZM116.734 41.0799H122.944C124.804 41.0799 126.414 40.7199 127.774 39.9999C129.154 39.2599 130.224 38.2499 130.984 36.9699C131.744 35.6699 132.124 34.1799 132.124 32.4999C132.124 30.7999 131.744 29.3099 130.984 28.0299C130.224 26.7499 129.154 25.7499 127.774 25.0299C126.414 24.2899 124.804 23.9199 122.944 23.9199H116.734V41.0799ZM138.849 42.9999V27.2499H140.889V31.5399L140.679 30.7899C141.119 29.5899 141.859 28.6799 142.899 28.0599C143.939 27.4199 145.229 27.0999 146.769 27.0999V29.1699C146.689 29.1699 146.609 29.1699 146.529 29.1699C146.449 29.1499 146.369 29.1399 146.289 29.1399C144.629 29.1399 143.329 29.6499 142.389 30.6699C141.449 31.6699 140.979 33.0999 140.979 34.9599V42.9999H138.849ZM157.199 43.1499C155.559 43.1499 154.119 42.8099 152.879 42.1299C151.639 41.4299 150.669 40.4799 149.969 39.2799C149.269 38.0599 148.919 36.6699 148.919 35.1099C148.919 33.5499 149.249 32.1699 149.909 30.9699C150.589 29.7699 151.509 28.8299 152.669 28.1499C153.849 27.4499 155.169 27.0999 156.629 27.0999C158.109 27.0999 159.419 27.4399 160.559 28.1199C161.719 28.7799 162.629 29.7199 163.289 30.9399C163.949 32.1399 164.279 33.5299 164.279 35.1099C164.279 35.2099 164.269 35.3199 164.249 35.4399C164.249 35.5399 164.249 35.6499 164.249 35.7699H150.539V34.1799H163.109L162.269 34.8099C162.269 33.6699 162.019 32.6599 161.519 31.7799C161.039 30.8799 160.379 30.1799 159.539 29.6799C158.699 29.1799 157.729 28.9299 156.629 28.9299C155.549 28.9299 154.579 29.1799 153.719 29.6799C152.859 30.1799 152.189 30.8799 151.709 31.7799C151.229 32.6799 150.989 33.7099 150.989 34.8699V35.1999C150.989 36.3999 151.249 37.4599 151.769 38.3799C152.309 39.2799 153.049 39.9899 153.989 40.5099C154.949 41.0099 156.039 41.2599 157.259 41.2599C158.219 41.2599 159.109 41.0899 159.929 40.7499C160.769 40.4099 161.489 39.8899 162.089 39.1899L163.289 40.5699C162.589 41.4099 161.709 42.0499 160.649 42.4899C159.609 42.9299 158.459 43.1499 157.199 43.1499ZM178.045 42.9999V39.5199L177.955 38.9499V33.1299C177.955 31.7899 177.575 30.7599 176.815 30.0399C176.075 29.3199 174.965 28.9599 173.485 28.9599C172.465 28.9599 171.495 29.1299 170.575 29.4699C169.655 29.8099 168.875 30.2599 168.235 30.8199L167.275 29.2299C168.075 28.5499 169.035 28.0299 170.155 27.6699C171.275 27.2899 172.455 27.0999 173.695 27.0999C175.735 27.0999 177.305 27.6099 178.405 28.6299C179.525 29.6299 180.085 31.1599 180.085 33.2199V42.9999H178.045ZM172.615 43.1499C171.435 43.1499 170.405 42.9599 169.525 42.5799C168.665 42.1799 168.005 41.6399 167.545 40.9599C167.085 40.2599 166.855 39.4599 166.855 38.5599C166.855 37.7399 167.045 36.9999 167.425 36.3399C167.825 35.6599 168.465 35.1199 169.345 34.7199C170.245 34.2999 171.445 34.0899 172.945 34.0899H178.375V35.6799H173.005C171.485 35.6799 170.425 35.9499 169.825 36.4899C169.245 37.0299 168.955 37.6999 168.955 38.4999C168.955 39.3999 169.305 40.1199 170.005 40.6599C170.705 41.1999 171.685 41.4699 172.945 41.4699C174.145 41.4699 175.175 41.1999 176.035 40.6599C176.915 40.0999 177.555 39.2999 177.955 38.2599L178.435 39.7299C178.035 40.7699 177.335 41.5999 176.335 42.2199C175.355 42.8399 174.115 43.1499 172.615 43.1499ZM205.55 27.0999C206.83 27.0999 207.94 27.3499 208.88 27.8499C209.84 28.3299 210.58 29.0699 211.1 30.0699C211.64 31.0699 211.91 32.3299 211.91 33.8499V42.9999H209.78V34.0599C209.78 32.3999 209.38 31.1499 208.58 30.3099C207.8 29.4499 206.69 29.0199 205.25 29.0199C204.17 29.0199 203.23 29.2499 202.43 29.7099C201.65 30.1499 201.04 30.7999 200.6 31.6599C200.18 32.4999 199.97 33.5199 199.97 34.7199V42.9999H197.84V34.0599C197.84 32.3999 197.44 31.1499 196.64 30.3099C195.84 29.4499 194.72 29.0199 193.28 29.0199C192.22 29.0199 191.29 29.2499 190.49 29.7099C189.69 30.1499 189.07 30.7999 188.63 31.6599C188.21 32.4999 188 33.5199 188 34.7199V42.9999H185.87V27.2499H187.91V31.5099L187.58 30.7599C188.06 29.6199 188.83 28.7299 189.89 28.0899C190.97 27.4299 192.24 27.0999 193.7 27.0999C195.24 27.0999 196.55 27.4899 197.63 28.2699C198.71 29.0299 199.41 30.1799 199.73 31.7199L198.89 31.3899C199.35 30.1099 200.16 29.0799 201.32 28.2999C202.5 27.4999 203.91 27.0999 205.55 27.0999Z" fill="white"/>
<g clip-path="url(#clip0_35_38)">
<path d="M22 35.3205C22 30.7252 25.5817 26.9999 30 26.9999C34.4183 26.9999 38 30.7252 38 35.3205C38 39.9159 34.4183 43.6411 30 43.6411C25.5817 43.6411 22 39.9159 22 35.3205Z" fill="#DCDCDC"/>
<mask id="mask0_35_38" style="mask-type:alpha" maskUnits="userSpaceOnUse" x="22" y="27" width="16" height="17">
<path d="M30 43.6411C34.4183 43.6411 38 39.9158 38 35.3205C38 30.7252 34.4183 26.9999 30 26.9999C25.5817 26.9999 22 30.7252 22 35.3205C22 39.9158 25.5817 43.6411 30 43.6411Z" fill="#DCDCDC"/>
</mask>
<g mask="url(#mask0_35_38)">
<path d="M30.9704 36.1503C31.7087 36.1503 32.3073 35.5278 32.3073 34.7598C32.3073 33.9919 31.7087 33.3693 30.9704 33.3693C30.232 33.3693 29.6334 33.9919 29.6334 34.7598C29.6334 35.5278 30.232 36.1503 30.9704 36.1503Z" fill="#CCCBCB"/>
<path d="M34.7655 37.6754C35.3848 37.6754 35.8868 37.1533 35.8868 36.5092C35.8868 35.8651 35.3848 35.343 34.7655 35.343C34.1462 35.343 33.6442 35.8651 33.6442 36.5092C33.6442 37.1533 34.1462 37.6754 34.7655 37.6754Z" fill="#C4C4C4"/>
<path d="M34.9596 33.6833C35.4717 33.6833 35.8868 33.2515 35.8868 32.7189C35.8868 32.1863 35.4717 31.7545 34.9596 31.7545C34.4475 31.7545 34.0323 32.1863 34.0323 32.7189C34.0323 33.2515 34.4475 33.6833 34.9596 33.6833Z" fill="#C4C4C4"/>
<path d="M33.1482 40.2321C33.6603 40.2321 34.0755 39.8004 34.0755 39.2678C34.0755 38.7351 33.6603 38.3034 33.1482 38.3034C32.6361 38.3034 32.221 38.7351 32.221 39.2678C32.221 39.8004 32.6361 40.2321 33.1482 40.2321Z" fill="#C4C4C4"/>
<path d="M28.3612 35.8363C28.5398 35.8363 28.6846 35.6857 28.6846 35.4999C28.6846 35.3141 28.5398 35.1635 28.3612 35.1635C28.1825 35.1635 28.0377 35.3141 28.0377 35.4999C28.0377 35.6857 28.1825 35.8363 28.3612 35.8363Z" fill="#C4C4C4"/>
<path d="M28.8355 36.1503C28.9427 36.1503 29.0296 36.06 29.0296 35.9485C29.0296 35.837 28.9427 35.7466 28.8355 35.7466C28.7284 35.7466 28.6415 35.837 28.6415 35.9485C28.6415 36.06 28.7284 36.1503 28.8355 36.1503Z" fill="#C4C4C4"/>
<path d="M27.0027 33.773C28.003 33.773 28.814 32.9296 28.814 31.8891C28.814 30.8487 28.003 30.0052 27.0027 30.0052C26.0023 30.0052 25.1913 30.8487 25.1913 31.8891C25.1913 32.9296 26.0023 33.773 27.0027 33.773Z" fill="#C4C4C4"/>
<path d="M24.6092 38.1688C25.7643 38.1688 26.7008 37.1948 26.7008 35.9933C26.7008 34.7919 25.7643 33.8179 24.6092 33.8179C23.454 33.8179 22.5175 34.7919 22.5175 35.9933C22.5175 37.1948 23.454 38.1688 24.6092 38.1688Z" fill="#C4C4C4"/>
<path d="M28.318 37.4511C28.6396 37.4511 28.9003 37.18 28.9003 36.8456C28.9003 36.5112 28.6396 36.2401 28.318 36.2401C27.9965 36.2401 27.7358 36.5112 27.7358 36.8456C27.7358 37.18 27.9965 37.4511 28.318 37.4511Z" fill="#C4C4C4"/>
<path d="M27.9515 40.8601C28.4993 40.8601 28.9434 40.3982 28.9434 39.8284C28.9434 39.2586 28.4993 38.7968 27.9515 38.7968C27.4037 38.7968 26.9596 39.2586 26.9596 39.8284C26.9596 40.3982 27.4037 40.8601 27.9515 40.8601Z" fill="#C4C4C4"/>
<path d="M25.8814 39.335C26.0958 39.335 26.2696 39.1543 26.2696 38.9313C26.2696 38.7084 26.0958 38.5276 25.8814 38.5276C25.6671 38.5276 25.4933 38.7084 25.4933 38.9313C25.4933 39.1543 25.6671 39.335 25.8814 39.335Z" fill="#C4C4C4"/>
<path d="M25.7089 41.0844C26.0423 41.0844 26.3126 40.8032 26.3126 40.4564C26.3126 40.1096 26.0423 39.8284 25.7089 39.8284C25.3754 39.8284 25.1051 40.1096 25.1051 40.4564C25.1051 40.8032 25.3754 41.0844 25.7089 41.0844Z" fill="#C4C4C4"/>
<path d="M31.3369 29.6464C31.6823 29.6464 31.9623 29.3552 31.9623 28.996C31.9623 28.6368 31.6823 28.3456 31.3369 28.3456C30.9916 28.3456 30.7116 28.6368 30.7116 28.996C30.7116 29.3552 30.9916 29.6464 31.3369 29.6464Z" fill="#C4C4C4"/>
<path d="M31.5525 31.5303C31.7074 31.5303 31.8329 31.3998 31.8329 31.2387C31.8329 31.0777 31.7074 30.9472 31.5525 30.9472C31.3977 30.9472 31.2722 31.0777 31.2722 31.2387C31.2722 31.3998 31.3977 31.5303 31.5525 31.5303Z" fill="#C4C4C4"/>
<path d="M31.2075 38.2136C31.3385 38.2136 31.4447 38.1032 31.4447 37.9669C31.4447 37.8307 31.3385 37.7202 31.2075 37.7202C31.0765 37.7202 30.9703 37.8307 30.9703 37.9669C30.9703 38.1032 31.0765 38.2136 31.2075 38.2136Z" fill="#C4C4C4"/>
<path d="M31.7035 45.3456C32.823 45.3456 33.7305 44.4017 33.7305 43.2374C33.7305 42.0731 32.823 41.1292 31.7035 41.1292C30.5841 41.1292 29.6766 42.0731 29.6766 43.2374C29.6766 44.4017 30.5841 45.3456 31.7035 45.3456Z" fill="#C4C4C4"/>
</g>
</g>
<defs>
<clipPath id="clip0_35_38">
<rect width="16" height="17" fill="white" transform="translate(22 26.9999)"/>
</clipPath>
</defs>
</svg>
