<svg width="69" height="68" viewBox="0 0 69 68" fill="none" xmlns="http://www.w3.org/2000/svg">
<path d="M54 54.5085C50.7408 42.6886 39.8875 34.0049 27 34.0049C14.1125 34.0049 3.25811 42.6886 0 54.5085H54Z" fill="#3030B4"/>
<path d="M27.0677 30.1965C35.3311 30.1965 42.0299 23.4368 42.0299 15.0982C42.0299 6.75971 35.3311 0 27.0677 0C18.8043 0 12.1055 6.75971 12.1055 15.0982C12.1055 23.4368 18.8043 30.1965 27.0677 30.1965Z" fill="#3030B4"/>
<path fill-rule="evenodd" clip-rule="evenodd" d="M37.8633 40.8418C41.3477 37.3861 46.9971 37.3861 50.4815 40.8418L52.125 42.4717L53.7684 40.8418C57.2529 37.3861 62.9022 37.3861 66.3866 40.8418C69.8711 44.2975 69.8711 49.9002 66.3866 53.3559L52.125 67.5L37.8633 53.3559C34.3789 49.9002 34.3789 44.2975 37.8633 40.8418Z" fill="#DE4642"/>
</svg>
